inDegrees=no
num_controls=7
num_derivatives=13
num_iterations=123
num_multipliers=7
num_parameters=0
num_slacks=7
num_states=26
objective=0.539942
objective_accelerations=0.069576
objective_balance=0.003569
objective_effort=0.050150
objective_height=0.407906
objective_ligament=0.008741
solver_duration=1273.277219
status=Solve_Succeeded
success=true
DataType=double
version=3
OpenSimVersion=4.5
endheader
time	/jointset/ground_pelvis/pelvis_tilt/value	/jointset/ground_pelvis/pelvis_tx/value	/jointset/ground_pelvis/pelvis_ty/value	/jointset/hip_r/hip_flexion_r/value	/jointset/hip_r/hip_adduction_r/value	/jointset/hip_r/hip_rotation_r/value	/jointset/back/lumbar_extension/value	/jointset/patellofemoral_r/patellar_flexion_r/value	/jointset/knee_r/knee_flexion_r/value	/jointset/knee_r/knee_adduction_r/value	/jointset/knee_r/knee_rotation_r/value	/jointset/ankle_r/ankle_angle_r/value	/jointset/subtalar_r/subtalar_angle_r/value	/jointset/ground_pelvis/pelvis_tilt/speed	/jointset/ground_pelvis/pelvis_tx/speed	/jointset/ground_pelvis/pelvis_ty/speed	/jointset/hip_r/hip_flexion_r/speed	/jointset/hip_r/hip_adduction_r/speed	/jointset/hip_r/hip_rotation_r/speed	/jointset/back/lumbar_extension/speed	/jointset/patellofemoral_r/patellar_flexion_r/speed	/jointset/knee_r/knee_flexion_r/speed	/jointset/knee_r/knee_adduction_r/speed	/jointset/knee_r/knee_rotation_r/speed	/jointset/ankle_r/ankle_angle_r/speed	/jointset/subtalar_r/subtalar_angle_r/speed	/forceset/tau_hip_flexion_r	/forceset/tau_hip_adduction_r	/forceset/tau_hip_rotation_r	/forceset/tau_knee_flexion_r	/forceset/tau_ankle_angle_r	/forceset/tau_subtalar_angle_r	/forceset/tau_lumbar_extension	lambda_cid13_p0	lambda_cid14_p0	lambda_cid14_p1	lambda_cid14_p2	lambda_cid14_p3	lambda_cid14_p4	lambda_cid14_p5	/jointset/ground_pelvis/pelvis_tilt/accel	/jointset/ground_pelvis/pelvis_tx/accel	/jointset/ground_pelvis/pelvis_ty/accel	/jointset/hip_r/hip_flexion_r/accel	/jointset/hip_r/hip_adduction_r/accel	/jointset/hip_r/hip_rotation_r/accel	/jointset/back/lumbar_extension/accel	/jointset/patellofemoral_r/patellar_flexion_r/accel	/jointset/knee_r/knee_flexion_r/accel	/jointset/knee_r/knee_adduction_r/accel	/jointset/knee_r/knee_rotation_r/accel	/jointset/ankle_r/ankle_angle_r/accel	/jointset/subtalar_r/subtalar_angle_r/accel	gamma_cid13_p0	gamma_cid14_p0	gamma_cid14_p1	gamma_cid14_p2	gamma_cid14_p3	gamma_cid14_p4	gamma_cid14_p5
0.5	-0.2117579762472548	-0.005485568237981964	0.7894403367691734	1.058846044600613	-0.2200220522426105	-0.1173844748066105	-0.3473004016374473	0.947028229401338	0.9470282294010347	-0.03634833280065507	0.1745258640741806	0.2860064280563107	0.0769650683074703	-0.5356936263748476	-0.1847420162235295	-0.641636417076378	2.384384687562302	-0.004575081529117714	0.1944020962235142	-0.5852472457730646	2.359072538852141	2.359072538852127	-0.4862990415369377	0.0002274192284625681	0.6242162468100806	0.1899155891890552	-0.1495346313888673	-0.02029161114383569	0.01261935935940094	-0.379790116328964	0.112046345455803	-0.002050516940719953	0.1861132788284494	-15.63235183635721	-4.647136586146303	0.06240947759765059	-1.567896739818084	-5.952072321773267	-652.0574247171978	62.15774210006284	0.5893116797127762	0.7237594181048616	-0.6453487715497086	-1.466150398575321	-0.2642873925472454	-0.9175829253529576	1.883227588336889	-1.565319014251694	-1.56531901425168	0.3880869295861599	-0.02487221083597409	-0.9089603578808165	-0.4504259777936379	-1.994914410825045e-07	-2.157262893410189e-07	1.456294304622454e-06	-1.589740154457355e-06	-2.683284544682384e-08	-3.398943083867149e-07	8.292350525494998e-07
0.51	-0.2170841939214105	-0.007296544928810936	0.7829933108859463	1.082612644323064	-0.220081980039421	-0.1154856322014806	-0.3530584432725599	0.9705371919932653	0.9705371919931496	-0.04118935434570467	0.1745280112541313	0.292201820781783	0.07883974282995899	-0.529466020990233	-0.1774318468626441	-0.6476119076407211	2.368607938227389	-0.007403715421510184	0.1853813221150331	-0.5662906240779233	2.342389359855582	2.342389359855586	-0.4818837057861768	0.000201578992409356	0.6147686591717053	0.1849763264909136	-0.1572573432056795	-0.01843001111409291	0.01270913567149657	-0.3849637119947916	0.1099968710752664	-0.001431439400300226	0.1930478675165619	-14.06099834679642	-5.660388420246312	-0.04273177488697983	-1.326576605589617	-5.60805655336407	-658.8093523569562	62.15243837793835	0.6520435041386268	0.7378690068618459	-0.5501901753629516	-1.682566295984583	-0.291318405882896	-0.8924317060297048	1.912448035832338	-1.769371263377245	-1.769371263374277	0.4716519347990448	0.008165082672691833	-0.9767422752156638	-0.5221396912810463	-1.988571723121827e-07	-2.588104035513464e-07	1.091761003623588e-06	-1.951712758525681e-06	3.625375811996083e-08	-3.416941642115728e-07	5.729400411364768e-07
0.52	-0.2223456238344596	-0.009033775263674762	0.7764912219017784	1.106211650733158	-0.2201700275788151	-0.1136766187479219	-0.3586248049755751	0.9938694120110227	0.9938694120110952	-0.04598554352585119	0.1745298210342595	0.2982999207691917	0.08066373207037494	-0.5227360741535053	-0.1699927450305001	-0.6526490372645174	2.350866025091063	-0.01019903004580935	0.1764362659091916	-0.5469112593535985	2.323724024018258	2.323724024018283	-0.4773325685562965	0.0001599392628635912	0.6047576991973386	0.1797785327745069	-0.1649800550224902	-0.01656841108434799	0.01279891198359323	-0.3901373076606193	0.1079473966947303	-0.0008123618598774001	0.1999824562046756	-12.50206370395272	-6.675044207848805	-0.1446779064339248	-1.08969744112885	-5.288533695111227	-665.5863837074069	62.22455397812011	0.6897799701353977	0.7495459123565766	-0.4576765834403431	-1.859183158858077	-0.2576235389285867	-0.9024393448250271	1.967776194173561	-1.961750382404455	-1.961750382404457	0.4152472254100347	-0.0280321095344821	-1.021634825079117	-0.5021321814466611	-2.06340804349319e-07	-3.031312857356929e-07	8.046595193025207e-07	-2.304540408509715e-06	8.879356431475972e-08	-3.373815907766684e-07	3.265465589376416e-07
0.53	-0.2275373919125707	-0.01069607065229133	0.769943498866265	1.129623658816005	-0.2202858605626686	-0.1119556962685327	-0.363995348726331	1.017005288197625	1.017005288197335	-0.05073474101917491	0.1745306941623286	0.3042951670925333	0.08243440483369012	-0.5155447150639538	-0.1624545716452784	-0.6567332599045231	2.331223241139917	-0.01295161737799982	0.1677541785771511	-0.5271388991633382	2.303130345130017	2.30313034513004	-0.4725008754843937	1.536696175668333e-05	0.5942064272172233	0.1743264647256719	-0.1726456660213541	-0.01521895558157631	0.01293345373445608	-0.3954111501561086	0.1056909571286266	-3.506698796208117e-05	0.2068265900386224	-10.9573397240747	-7.76165324744726	-0.1697747383992277	-0.8887517869992176	-4.841742303677742	-672.5211169408589	62.53178392419715	0.7447014087155618	0.7577404867797783	-0.3595156375142828	-2.063722657176365	-0.2820060932998626	-0.8505809389672061	1.990754676590581	-2.156264813548022	-2.156264813548387	0.5181300698075864	-0.008052520236130997	-1.084667590090951	-0.5713677020260229	-2.189938502754178e-07	-3.287537823686875e-07	7.807944669766009e-07	-2.493056186732916e-06	1.050813800150022e-07	-3.423806121264368e-07	2.486031238034207e-07
0.54	-0.2326550688937163	-0.01228262682002073	0.7633597894977048	1.152829859730555	-0.2204288053724313	-0.1103214921647785	-0.3691664111261568	1.039925609961043	1.03992560996039	-0.05543542163743426	0.1745300450213931	0.3101823418549511	0.08414963219943214	-0.5079178547603801	-0.1548449008530645	-0.659846303873872	2.30970459143143	-0.01562139522761375	0.1590925907821647	-0.5070149891675453	2.28061313938121	2.28061313938123	-0.4676291935434034	-0.0001445145328436711	0.5831433870125797	0.1686894532598727	-0.1803112770202172	-0.01386950007880458	0.01306799548532025	-0.4006849926515977	0.1034345175625228	0.0007422278839532848	0.21367072387257	-9.427815242680191	-8.849645294519743	-0.1892821117407344	-0.6953603374901498	-4.422886273455069	-679.4865569020023	62.92970364680266	0.7768802129398896	0.7638453937549847	-0.2634408493089955	-2.234356310326096	-0.2410616424132781	-0.8983394374142164	2.038086155280077	-2.346455754517649	-2.346455754517649	0.4232449992275344	-0.03109394823316522	-1.123988469984753	-0.5391208648394982	-2.37366247738241e-07	-3.336887034980584e-07	1.048169722389996e-06	-2.499780106837747e-06	8.126061048722425e-08	-3.576818234507369e-07	3.570299535066477e-07
